<?xml version="1.0" standalone="no"?><!DOCTYPE svg PUBLIC "-//W3C//DTD SVG 1.1//EN" "http://www.w3.org/Graphics/SVG/1.1/DTD/svg11.dtd"><svg t="1603721766247" class="icon" viewBox="0 0 1024 1024" version="1.1" xmlns="http://www.w3.org/2000/svg" p-id="4011" xmlns:xlink="http://www.w3.org/1999/xlink" width="200" height="200"><defs><style type="text/css"></style></defs><path d="M568.942 43.544C522.527 18.184 453.622 0 377.54 0S232.553 31.581 185.66 56.942v481.376c46.893-25.361 115.32-56.942 191.88-56.942s144.987 18.183 191.88 44.022c46.894 25.36 115.32 44.023 191.88 44.023s144.988-33.496 191.881-58.857V80.867c-46.893 25.361-115.32 33.017-191.88 33.017s-145.465-44.98-192.359-70.34z" fill="#EA0100" p-id="4012"></path><path d="M113.406 0C89.959 0 70.819 19.14 70.819 42.587v938.826c0 23.447 19.14 42.587 42.587 42.587s42.587-19.14 42.587-42.587V42.587C155.993 19.14 136.853 0 113.406 0" fill="#99A9BF" p-id="4013"></path></svg>