<?xml version="1.0" standalone="no"?><!DOCTYPE svg PUBLIC "-//W3C//DTD SVG 1.1//EN" "http://www.w3.org/Graphics/SVG/1.1/DTD/svg11.dtd"><svg t="1603591522669" class="icon" viewBox="0 0 1024 1024" version="1.1" xmlns="http://www.w3.org/2000/svg" p-id="7405" xmlns:xlink="http://www.w3.org/1999/xlink" width="200" height="200"><defs><style type="text/css"></style></defs><path d="M739.091 921.444c10.417 33.826-4.011 68.294-32.225 76.983-28.216 8.689-59.536-11.688-69.953-45.515l-89.011-345.999c-10.418-33.827-12.018-63.36 16.199-72.048 28.214-8.689 43.505 16.625 53.924 50.452l121.066 336.127z" fill="#FFFFFF" p-id="7406" data-spm-anchor-id="a313x.7781069.0.i22" class=""></path><path d="M693.525 1011.432c-29.499 0-57.101-22.732-67.125-55.281l-0.14-0.497-88.948-345.751c-6.447-21.002-8.571-36.896-6.688-50.005 2.581-17.957 13.037-30.248 30.239-35.544 4.761-1.467 9.453-2.21 13.944-2.21 31.511 0 45.713 33.987 53.653 59.688L749.528 917.96l0.076 0.247c12.186 39.569-5.534 80.272-39.5 90.733a56.244 56.244 0 0 1-16.579 2.492z m-46.026-61.52c7.263 23.281 26.159 39.52 46.026 39.52 3.437 0 6.836-0.511 10.104-1.517 22.31-6.871 33.503-35.096 25.023-62.996L607.588 588.803l-0.076-0.246c-9.205-29.886-19.902-44.413-32.705-44.413-2.294 0-4.808 0.416-7.469 1.235-9.095 2.8-13.562 8.078-14.937 17.648-1.393 9.691 0.574 22.988 6.013 40.649l0.14 0.497 88.945 345.739z" fill="#dbdbdb" p-id="7407" data-spm-anchor-id="a313x.7781069.0.i20" class=""></path><path d="M512 331.817m-308.165 0a308.165 308.165 0 1 0 616.33 0 308.165 308.165 0 1 0-616.33 0Z" fill="#FFFFFF" p-id="7408"></path><path d="M511.9 651.062c-33.713 0-67.109-5.354-99.26-15.915a320.319 320.319 0 0 1-88.506-45.291c-56.156-40.821-96.669-97.564-117.16-164.098-25.093-81.476-16.955-167.847 22.914-243.202C269.756 107.201 336.583 51.882 418.06 26.789c30.638-9.436 62.278-14.22 94.042-14.22 33.713 0 67.109 5.354 99.259 15.915a320.322 320.322 0 0 1 88.506 45.292c56.156 40.82 96.669 97.565 117.16 164.1 25.093 81.474 16.955 167.844-22.914 243.199S687.416 611.749 605.941 636.842c-30.637 9.435-62.277 14.22-94.041 14.22z m0.202-616.493c-29.567 0-59.028 4.456-87.566 13.245-156.6 48.229-244.765 214.87-196.537 371.469C266.643 544.758 380.734 629.062 511.9 629.062c29.567 0 59.028-4.456 87.566-13.245 75.858-23.363 138.079-74.869 175.2-145.03C811.787 400.626 819.363 320.21 796 244.351 757.357 118.874 643.267 34.569 512.102 34.569z" fill="#dbdbdb" p-id="7409" data-spm-anchor-id="a313x.7781069.0.i19" class=""></path><path d="M512.036 330.275m-244.88 0a244.88 244.88 0 1 0 489.76 0 244.88 244.88 0 1 0-489.76 0Z" fill="#FFFFFF" p-id="7410"></path><path d="M511.954 586.219c-53.543 0-107.004-17.426-150.534-49.068-45.021-32.728-77.501-78.221-93.929-131.563-20.118-65.321-13.594-134.566 18.37-194.979S371.402 105.846 436.724 85.73c24.562-7.564 49.928-11.4 75.395-11.4 53.543 0 107.003 17.427 150.533 49.069 45.021 32.728 77.502 78.222 93.93 131.563 20.117 65.319 13.593 134.563-18.37 194.977-31.963 60.414-85.54 104.764-150.861 124.881-24.564 7.564-49.931 11.399-75.397 11.399z m0.164-489.89c-23.27 0-46.458 3.508-68.92 10.426-59.706 18.387-108.677 58.923-137.892 114.143-29.215 55.219-35.178 118.51-16.79 178.216 30.414 98.755 120.207 165.105 223.438 165.105 23.27 0 46.458-3.507 68.92-10.425 59.705-18.388 108.675-58.924 137.89-114.144 29.215-55.219 35.178-118.51 16.791-178.214-30.414-98.755-120.207-165.107-223.437-165.107z" fill="#dbdbdb" p-id="7411" data-spm-anchor-id="a313x.7781069.0.i18" class=""></path><path d="M723.511 344.777a7.317 7.317 0 0 1-7.276-6.643c-7.23-78.176-37.052-124.626-60.795-149.826-25.7-27.277-50.057-36.296-50.3-36.384-3.792-1.372-5.769-5.558-4.406-9.354s5.53-5.776 9.331-4.425c1.103 0.393 27.33 9.954 55.381 39.448 25.588 26.903 57.698 76.361 65.359 159.192a7.316 7.316 0 0 1-7.294 7.992zM679.866 760.674l-85.301 26.271-5.17-26.731 80.407-24.764z" fill="#dbdbdb" p-id="7412" data-spm-anchor-id="a313x.7781069.0.i17" class=""></path><path d="M632.265 767.681l-22.787 75.145" fill="#FFFFFF" p-id="7413"></path><path d="M622.743 764.794l19.14 5.805-22.787 75.148-19.141-5.804z" fill="#dbdbdb" p-id="7414" data-spm-anchor-id="a313x.7781069.0.i21" class=""></path><path d="M665.557 758.956l-42.133 141.581" fill="#FFFFFF" p-id="7415"></path><path d="M655.972 756.17l19.17 5.705-42.144 141.587-19.17-5.706z" fill="#dbdbdb" p-id="7416" data-spm-anchor-id="a313x.7781069.0.i24" class=""></path><path d="M689.715 785.198l-51.271 166.595" fill="#FFFFFF" p-id="7417"></path><path d="M680.214 782.26l19.116 5.882-51.263 166.602-19.116-5.882z" fill="#dbdbdb" p-id="7418" data-spm-anchor-id="a313x.7781069.0.i23" class=""></path><path d="M708.769 832.151l-47.94 152.555" fill="#FFFFFF" p-id="7419"></path><path d="M699.232 829.15l19.08 5.997-47.94 152.554-19.08-5.996z" fill="#dbdbdb" p-id="7420" data-spm-anchor-id="a313x.7781069.0.i25" class=""></path><path d="M725.296 888.301L692.46 997.93" fill="#FFFFFF" p-id="7421"></path><path d="M715.758 885.46l19.16 5.739-32.833 109.634-19.16-5.738z" fill="#dbdbdb" p-id="7422" data-spm-anchor-id="a313x.7781069.0.i26" class=""></path></svg>